<svg id="图层_1" data-name="图层 1" xmlns="http://www.w3.org/2000/svg" viewBox="0 0 32 32"><defs><style>.cls-1{fill:#d18342;}.cls-2{fill:#4380b6;}</style></defs><path class="cls-1" d="M16.19.24A15.72,15.72,0,0,0,.46,16a15.92,15.92,0,0,0,.18,2.39,7.52,7.52,0,0,1,.49-2.57,10.39,10.39,0,0,1,11-6.61A9.71,9.71,0,0,1,19,14l-3.28,2.12a11.92,11.92,0,0,0-4.39-4.52,6.7,6.7,0,0,0-6.41.3,6.73,6.73,0,0,0-3.12,5.61,4,4,0,0,0,1.08,2.93c1.15,1.1,3,1,4.54.73a29.41,29.41,0,0,0,12-5.64,75.89,75.89,0,0,0,9.47-8.9A15.72,15.72,0,0,0,16.19.24Z"/><path class="cls-2" d="M28.68,6.4l.06,4.48a3.91,3.91,0,0,1-.27,1.83,4,4,0,0,1-1,1.15c-4.43,3.82-9.16,7.48-14.69,9.39a18.78,18.78,0,0,1-3,.8,11.09,11.09,0,0,1-3.68,0,7.2,7.2,0,0,1-5-3.21,15.71,15.71,0,0,0,26.2,5.34,4.64,4.64,0,0,1-3.19.65,6.78,6.78,0,0,1-4.4-3.22A28.61,28.61,0,0,1,11,26.53c-2.61.29-6.64-.24-8.22-2.66A13.79,13.79,0,0,0,10.1,25a23,23,0,0,0,7.23-2.57,48.64,48.64,0,0,0,11.28-8.06c.68,1.33,0,3-1.09,4S25.13,20.1,24,21l-.08.07a10,10,0,0,0,1.88,2.53,3.42,3.42,0,0,0,2.85.9,15.72,15.72,0,0,0,0-18.13Z"/></svg>